{"glyphs":{":":{"x_min":0,"x_max":360,"ha":360,"o":"m 101 547 l 259 547 l 259 358 l 101 358 z m 101 189 l 259 189 l 259 0 l 101 0 z"},"$":{"x_min":0,"x_max":626,"ha":626,"o":"m 350 -147 l 278 -147 l 278 0 q 223 2 171 14 q 120 25 71 45 l 71 173 q 122 144 173 129 q 225 113 278 111 l 278 263 l 264 266 q 159 287 115 331 q 70 375 70 457 q 70 544 124 594 q 178 643 278 647 l 278 760 l 350 760 l 350 649 q 394 645 438 637 q 481 628 525 615 l 525 491 q 481 512 438 523 q 394 535 350 537 l 350 397 l 363 394 q 475 375 520 329 q 565 283 565 194 q 565 104 511 56 q 458 8 350 1 z m 278 408 l 278 536 q 247 534 228 517 q 209 500 209 474 q 209 445 227 429 q 244 413 278 408 z m 350 249 l 350 113 q 388 114 407 130 q 426 146 426 178 q 426 211 408 228 q 391 244 350 249 z"},"?":{"x_min":0,"x_max":522,"ha":522,"o":"m 312 246 l 153 246 l 153 270 q 153 310 167 341 q 182 372 229 420 l 257 448 q 282 474 293 496 q 305 519 305 541 q 305 575 284 594 q 263 614 225 614 q 189 614 148 597 q 107 581 62 549 l 62 702 q 115 723 159 732 q 203 742 244 742 q 351 742 407 694 q 464 645 464 552 q 464 504 447 466 q 429 428 388 385 l 360 357 q 330 327 321 308 q 312 290 312 268 z m 153 174 l 312 174 l 312 0 l 153 0 z"},"<":{"x_min":0,"x_max":754,"ha":754,"o":"m 659 475 l 235 313 l 659 152 l 659 30 l 95 256 l 95 371 l 659 597 z"},"'":{"x_min":0,"x_max":275,"ha":275,"o":"m 190 729 l 190 458 l 86 458 l 86 729 z"},"=":{"x_min":0,"x_max":754,"ha":754,"o":"m 95 482 l 659 482 l 659 367 l 95 367 z m 95 260 l 659 260 l 659 144 l 95 144 z"},"a":{"x_min":0,"x_max":607,"ha":607,"o":"m 296 246 q 247 246 222 228 q 197 209 197 173 q 197 140 217 121 q 237 102 273 102 q 317 102 348 137 q 378 173 378 226 l 378 246 z m 537 312 l 537 0 l 378 0 l 378 81 q 346 31 307 9 q 267 -14 210 -14 q 134 -14 86 35 q 39 85 39 164 q 39 260 98 305 q 158 350 285 350 l 378 350 l 378 364 q 378 405 348 425 q 319 444 257 444 q 206 444 163 433 q 119 421 82 399 l 82 532 q 132 546 183 553 q 234 560 285 560 q 418 560 478 502 q 537 443 537 312 z"},"L":{"x_min":0,"x_max":573,"ha":573,"o":"m 83 729 l 252 729 l 252 142 l 549 142 l 549 0 l 83 0 z"},"3":{"x_min":0,"x_max":626,"ha":626,"o":"m 419 393 q 485 374 520 327 q 555 280 555 207 q 555 99 480 42 q 405 -14 262 -14 q 211 -14 161 -5 q 110 4 60 22 l 60 167 q 107 141 154 127 q 201 114 247 114 q 314 114 350 140 q 385 166 385 214 q 385 264 349 289 q 312 315 240 315 l 173 315 l 173 436 l 244 436 q 308 436 339 458 q 370 480 370 526 q 370 568 340 591 q 310 614 254 614 q 213 614 171 604 q 130 593 88 573 l 88 711 q 139 727 188 734 q 237 742 284 742 q 412 742 476 696 q 539 649 539 555 q 539 491 509 450 q 479 410 419 393 z"},";":{"x_min":0,"x_max":360,"ha":360,"o":"m 101 189 l 259 189 l 259 40 l 150 -142 l 57 -142 l 101 40 z m 101 547 l 259 547 l 259 358 l 101 358 z"},"J":{"x_min":0,"x_max":334,"ha":334,"o":"m 83 729 l 252 729 l 252 71 q 252 -65 186 -133 q 119 -200 -16 -200 l -50 -200 l -50 -58 l -24 -58 q 29 -58 56 -25 q 83 7 83 71 z"},"V":{"x_min":0,"x_max":696,"ha":696,"o":"m 4 729 l 174 729 l 349 191 l 522 729 l 692 729 l 449 0 l 248 0 z"},"\"":{"x_min":0,"x_max":469,"ha":469,"o":"m 383 729 l 383 458 l 279 458 l 279 729 z m 190 729 l 190 458 l 86 458 l 86 729 z"},"7":{"x_min":0,"x_max":626,"ha":626,"o":"m 60 729 l 555 729 l 555 623 l 299 0 l 134 0 l 376 591 l 60 591 z"},"S":{"x_min":0,"x_max":648,"ha":648,"o":"m 539 706 l 539 552 q 485 579 434 592 q 382 606 336 606 q 276 606 247 587 q 218 569 218 530 q 218 500 237 484 q 257 468 309 456 l 380 440 q 490 416 536 366 q 582 316 582 224 q 582 104 518 45 q 454 -14 321 -14 q 259 -14 196 -1 q 133 12 70 38 l 70 197 q 133 160 192 141 q 250 122 305 122 q 360 122 390 143 q 419 163 419 201 q 419 235 399 254 q 379 272 319 287 l 254 303 q 156 327 110 378 q 64 429 64 516 q 64 625 128 684 q 191 742 310 742 q 364 742 421 733 q 478 724 539 706 z"},"}":{"x_min":0,"x_max":641,"ha":641,"o":"m 112 -53 l 143 -53 q 205 -53 223 -32 q 242 -11 242 59 l 242 140 q 242 216 262 251 q 282 286 331 299 q 282 311 262 346 q 242 380 242 457 l 242 538 q 242 607 223 629 q 205 650 143 650 l 112 650 l 112 760 l 208 760 q 304 760 348 717 q 392 674 392 580 l 392 480 q 392 407 415 378 q 439 350 501 350 l 528 350 l 528 241 l 501 241 q 439 241 415 213 q 392 184 392 111 l 392 17 q 392 -77 348 -120 q 304 -163 208 -163 l 112 -163 z"},"Z":{"x_min":0,"x_max":652,"ha":652,"o":"m 51 729 l 602 729 l 602 615 l 250 142 l 612 142 l 612 0 l 41 0 l 41 114 l 393 587 l 51 587 z"},"x":{"x_min":0,"x_max":580,"ha":580,"o":"m 200 280 l 22 547 l 189 547 l 290 385 l 392 547 l 558 547 l 380 281 l 567 0 l 400 0 l 290 173 l 180 0 l 14 0 z"},")":{"x_min":0,"x_max":411,"ha":411,"o":"m 72 -132 q 128 -16 156 95 q 185 206 185 314 q 185 422 156 532 q 128 643 72 759 l 203 759 q 270 639 302 530 q 334 420 334 313 q 334 206 302 97 q 270 -11 203 -132 z"},"&":{"x_min":0,"x_max":785,"ha":785,"o":"m 351 484 l 531 264 q 554 298 566 341 q 578 383 581 437 l 717 437 q 710 348 686 279 q 662 209 618 157 l 747 0 l 561 0 l 518 53 q 472 19 421 2 q 370 -14 312 -14 q 197 -14 125 53 q 54 121 54 228 q 54 299 85 354 q 117 409 188 461 q 169 487 161 513 q 152 539 152 567 q 152 646 208 694 q 264 742 356 742 q 396 742 440 735 q 483 728 530 714 l 530 578 q 489 602 452 613 q 415 624 380 624 q 346 624 327 610 q 309 595 309 569 q 309 552 319 531 q 330 510 351 484 z m 264 363 q 235 340 221 311 q 206 282 206 247 q 206 191 243 151 q 281 112 333 112 q 362 112 388 122 q 414 132 436 152 z"},"_":{"x_min":0,"x_max":450,"ha":450,"o":"m 450 -143 l 450 -236 l 0 -236 l 0 -143 z"},"v":{"x_min":0,"x_max":586,"ha":586,"o":"m 14 547 l 171 547 l 293 169 l 416 547 l 573 547 l 380 0 l 207 0 z"},"O":{"x_min":0,"x_max":765,"ha":765,"o":"m 382 606 q 305 606 262 542 q 220 479 220 364 q 220 249 262 186 q 305 122 382 122 q 460 122 503 186 q 545 249 545 364 q 545 479 503 542 q 460 606 382 606 z m 382 742 q 541 742 630 642 q 720 541 720 364 q 720 187 630 86 q 541 -14 382 -14 q 225 -14 135 86 q 45 187 45 364 q 45 541 135 642 q 225 742 382 742 z"},"(":{"x_min":0,"x_max":411,"ha":411,"o":"m 339 -132 l 209 -132 q 142 -11 109 97 q 77 206 77 313 q 77 420 110 530 q 142 639 209 759 l 339 759 q 283 643 255 532 q 227 422 227 314 q 227 206 255 95 q 283 -16 339 -132 z"},"C":{"x_min":0,"x_max":660,"ha":660,"o":"m 603 40 q 556 13 506 0 q 455 -14 400 -14 q 236 -14 141 88 q 45 189 45 364 q 45 539 141 640 q 236 742 400 742 q 455 742 506 729 q 556 715 603 688 l 603 537 q 556 573 510 589 q 464 606 414 606 q 323 606 271 542 q 220 477 220 364 q 220 251 271 187 q 323 122 414 122 q 464 122 510 139 q 556 155 603 191 z"},"W":{"x_min":0,"x_max":993,"ha":993,"o":"m 27 729 l 189 729 l 302 199 l 415 729 l 578 729 l 690 199 l 804 729 l 965 729 l 810 0 l 615 0 l 496 554 l 378 0 l 183 0 z"},"A":{"x_min":0,"x_max":696,"ha":696,"o":"m 481 133 l 216 133 l 174 0 l 4 0 l 248 729 l 449 729 l 692 0 l 522 0 z m 258 268 l 438 268 l 349 558 z"},"f":{"x_min":0,"x_max":391,"ha":391,"o":"m 399 760 l 399 645 l 312 645 q 279 645 266 632 q 253 618 253 585 l 253 547 l 387 547 l 387 422 l 253 422 l 253 0 l 95 0 l 95 422 l 17 422 l 17 547 l 95 547 l 95 585 q 95 674 140 717 q 185 760 279 760 z"},"Q":{"x_min":0,"x_max":765,"ha":765,"o":"m 400 -13 l 387 -13 q 225 -13 135 86 q 45 186 45 364 q 45 541 135 642 q 225 742 382 742 q 542 742 631 643 q 720 543 720 364 q 720 241 673 152 q 625 63 537 18 l 669 -146 l 508 -146 z m 382 606 q 305 606 262 542 q 220 479 220 364 q 220 247 261 184 q 303 122 382 122 q 460 122 503 186 q 545 249 545 364 q 545 479 503 542 q 460 606 382 606 z"},"w":{"x_min":0,"x_max":831,"ha":831,"o":"m 32 547 l 185 547 l 267 170 l 350 547 l 481 547 l 564 174 l 647 547 l 800 547 l 670 0 l 499 0 l 416 376 l 333 0 l 161 0 z"},"-":{"x_min":0,"x_max":374,"ha":374,"o":"m 49 359 l 325 359 l 325 217 l 49 217 z"},"E":{"x_min":0,"x_max":615,"ha":615,"o":"m 83 729 l 539 729 l 539 587 l 252 587 l 252 451 l 522 451 l 522 309 l 252 309 l 252 142 l 549 142 l 549 0 l 83 0 z"},"s":{"x_min":0,"x_max":536,"ha":536,"o":"m 460 530 l 460 397 q 410 420 363 432 q 315 444 274 444 q 229 444 207 431 q 186 419 186 393 q 186 372 202 361 q 218 350 261 344 l 289 340 q 410 323 451 284 q 493 245 493 161 q 493 74 435 30 q 377 -14 262 -14 q 213 -14 161 -6 q 109 3 54 20 l 54 153 q 101 127 151 115 q 200 102 251 102 q 297 102 320 116 q 344 130 344 158 q 344 182 328 193 q 312 205 264 211 l 236 215 q 131 229 89 269 q 46 309 46 389 q 46 476 100 518 q 154 560 265 560 q 308 560 356 553 q 404 545 460 530 z"},">":{"x_min":0,"x_max":754,"ha":754,"o":"m 95 475 l 95 597 l 659 371 l 659 256 l 95 30 l 95 152 l 520 313 z"},"l":{"x_min":0,"x_max":308,"ha":308,"o":"m 76 760 l 233 760 l 233 0 l 76 0 z"},"8":{"x_min":0,"x_max":626,"ha":626,"o":"m 313 326 q 266 326 240 297 q 215 269 215 215 q 215 161 240 133 q 266 104 313 104 q 360 104 385 133 q 411 161 411 215 q 411 269 385 298 q 360 326 313 326 z m 190 388 q 130 408 100 450 q 69 491 69 553 q 69 646 131 694 q 193 742 313 742 q 433 742 494 694 q 556 646 556 553 q 556 491 526 450 q 495 408 436 388 q 502 368 536 322 q 570 275 570 205 q 570 97 506 41 q 441 -14 313 -14 q 186 -14 120 41 q 55 97 55 205 q 55 275 89 322 q 123 368 190 388 z m 229 534 q 229 491 251 467 q 273 444 313 444 q 353 444 375 467 q 396 491 396 534 q 396 578 375 601 q 353 624 313 624 q 273 624 251 601 q 229 577 229 534 z"},"\\":{"x_min":0,"x_max":329,"ha":329,"o":"m 231 -93 l 0 729 l 97 729 l 329 -93 z"},"e":{"x_min":0,"x_max":610,"ha":610,"o":"m 567 275 l 567 225 l 199 225 q 205 164 239 133 q 273 102 335 102 q 385 102 437 118 q 489 135 543 168 l 543 33 q 488 10 432 -2 q 376 -14 320 -14 q 187 -14 113 61 q 39 137 39 273 q 39 407 111 483 q 184 560 312 560 q 428 560 497 482 q 567 405 567 275 z m 405 333 q 405 383 379 413 q 353 444 311 444 q 265 444 237 415 q 208 387 201 333 z"},"b":{"x_min":0,"x_max":644,"ha":644,"o":"m 337 113 q 388 113 415 154 q 441 195 441 273 q 441 351 415 392 q 388 433 337 433 q 287 433 260 392 q 233 351 233 273 q 233 195 260 154 q 287 113 337 113 z m 233 467 q 266 515 305 537 q 345 560 396 560 q 487 560 545 480 q 604 399 604 273 q 604 146 545 66 q 487 -14 396 -14 q 345 -14 305 9 q 266 31 233 79 l 233 0 l 76 0 l 76 760 l 233 760 z"},"%":{"x_min":0,"x_max":901,"ha":901,"o":"m 697 301 q 666 301 649 271 q 632 241 632 185 q 632 129 649 99 q 666 69 697 69 q 729 69 746 99 q 763 129 763 185 q 763 241 746 271 q 729 301 697 301 z m 697 383 q 779 383 826 330 q 873 277 873 185 q 873 93 826 39 q 779 -14 697 -14 q 616 -14 568 39 q 521 93 521 185 q 521 277 568 330 q 616 383 697 383 z m 294 -14 l 197 -14 l 607 742 l 705 742 z m 204 742 q 286 742 333 689 q 380 636 380 544 q 380 452 333 398 q 286 345 204 345 q 123 345 76 398 q 29 452 29 544 q 29 636 76 689 q 123 742 204 742 z m 204 660 q 173 660 156 630 q 139 600 139 544 q 139 488 156 457 q 173 427 204 427 q 236 427 253 457 q 270 488 270 544 q 270 600 253 630 q 235 660 204 660 z"},"m":{"x_min":0,"x_max":938,"ha":938,"o":"m 532 456 q 562 507 603 533 q 644 560 693 560 q 778 560 822 502 q 867 444 867 333 l 867 0 l 708 0 l 708 285 q 709 292 709 298 q 709 305 709 318 q 709 376 694 402 q 679 428 644 428 q 600 428 575 387 q 551 346 550 269 l 550 0 l 392 0 l 392 285 q 392 376 377 402 q 363 428 327 428 q 282 428 258 387 q 233 346 233 269 l 233 0 l 75 0 l 75 547 l 233 547 l 233 467 q 262 513 299 537 q 337 560 382 560 q 433 560 472 533 q 512 505 532 456 z"},"#":{"x_min":0,"x_max":754,"ha":754,"o":"m 400 718 l 358 530 l 474 530 l 517 718 l 614 718 l 571 530 l 693 530 l 693 426 l 548 426 l 518 292 l 643 292 l 643 187 l 495 187 l 453 0 l 355 0 l 397 187 l 282 187 l 239 0 l 142 0 l 184 187 l 61 187 l 61 292 l 205 292 l 236 426 l 112 426 l 112 530 l 260 530 l 302 718 z m 450 426 l 334 426 l 303 292 l 419 292 z"},",":{"x_min":0,"x_max":342,"ha":342,"o":"m 92 189 l 250 189 l 250 40 l 142 -142 l 48 -142 l 92 40 z"},"n":{"x_min":0,"x_max":641,"ha":641,"o":"m 570 333 l 570 0 l 412 0 l 412 54 l 412 255 q 412 326 409 353 q 406 379 399 392 q 390 409 374 419 q 358 428 338 428 q 289 428 261 386 q 233 344 233 269 l 233 0 l 76 0 l 76 547 l 233 547 l 233 467 q 269 515 309 537 q 349 560 397 560 q 482 560 526 502 q 570 444 570 333 z"},"h":{"x_min":0,"x_max":641,"ha":641,"o":"m 570 333 l 570 0 l 412 0 l 412 54 l 412 254 q 412 326 409 353 q 406 379 399 392 q 390 409 374 419 q 358 428 338 428 q 289 428 261 386 q 233 344 233 269 l 233 0 l 76 0 l 76 760 l 233 760 l 233 467 q 269 515 309 537 q 349 560 397 560 q 482 560 526 502 q 570 444 570 333 z"},"z":{"x_min":0,"x_max":523,"ha":523,"o":"m 51 547 l 481 547 l 481 425 l 222 125 l 481 125 l 481 0 l 41 0 l 41 122 l 300 422 l 51 422 z"},"B":{"x_min":0,"x_max":686,"ha":686,"o":"m 345 447 q 385 447 406 466 q 427 486 427 524 q 427 562 406 581 q 385 601 345 601 l 252 601 l 252 447 z m 351 128 q 402 128 428 152 q 454 176 454 224 q 454 271 428 295 q 402 319 351 319 l 252 319 l 252 128 z m 508 390 q 563 373 593 325 q 623 278 623 209 q 623 104 558 52 q 494 0 363 0 l 83 0 l 83 729 l 336 729 q 473 729 534 683 q 596 637 596 536 q 596 483 573 446 q 551 408 508 390 z"},"K":{"x_min":0,"x_max":697,"ha":697,"o":"m 83 729 l 252 729 l 252 463 l 496 729 l 692 729 l 376 384 l 725 0 l 513 0 l 252 287 l 252 0 l 83 0 z"},"R":{"x_min":0,"x_max":693,"ha":693,"o":"m 323 406 q 376 406 399 428 q 422 450 422 500 q 422 550 399 571 q 376 593 323 593 l 252 593 l 252 406 z m 252 276 l 252 0 l 83 0 l 83 729 l 341 729 q 471 729 531 681 q 591 632 591 528 q 591 456 560 409 q 529 363 465 341 q 500 332 528 301 q 555 270 583 207 l 675 0 l 495 0 l 415 181 q 391 236 366 256 q 341 276 300 276 z"},"T":{"x_min":0,"x_max":614,"ha":614,"o":"m 4 729 l 609 729 l 609 587 l 392 587 l 392 0 l 222 0 l 222 587 l 4 587 z"},"P":{"x_min":0,"x_max":659,"ha":659,"o":"m 83 729 l 363 729 q 489 729 556 667 q 623 605 623 491 q 623 376 556 315 q 489 253 363 253 l 252 253 l 252 0 l 83 0 z m 252 593 l 252 389 l 345 389 q 395 389 421 416 q 448 442 448 491 q 448 540 421 566 q 395 593 345 593 z"},"|":{"x_min":0,"x_max":329,"ha":329,"o":"m 214 764 l 214 -236 l 114 -236 l 114 764 z"},"t":{"x_min":0,"x_max":430,"ha":430,"o":"m 248 702 l 248 547 l 410 547 l 410 422 l 248 422 l 248 190 q 248 152 261 138 q 274 125 315 125 l 396 125 l 396 0 l 261 0 q 168 0 129 43 q 90 86 90 190 l 90 422 l 12 422 l 12 547 l 90 547 l 90 702 z"},"M":{"x_min":0,"x_max":896,"ha":896,"o":"m 83 729 l 298 729 l 447 339 l 598 729 l 812 729 l 812 0 l 652 0 l 652 533 l 501 140 l 394 140 l 243 533 l 243 0 l 83 0 z"},"g":{"x_min":0,"x_max":644,"ha":644,"o":"m 411 93 q 378 45 339 22 q 300 0 248 0 q 158 0 99 79 q 41 158 41 280 q 41 402 99 481 q 158 559 248 559 q 300 559 339 537 q 378 514 411 466 l 411 547 l 569 547 l 569 55 q 569 -77 494 -146 q 419 -216 276 -216 q 230 -216 187 -208 q 144 -200 101 -184 l 101 -48 q 142 -74 182 -87 q 221 -100 261 -100 q 338 -100 375 -62 q 411 -25 411 55 z m 307 433 q 258 433 231 393 q 204 353 204 280 q 204 205 230 166 q 256 127 307 127 q 356 127 383 167 q 411 207 411 280 q 411 353 383 393 q 356 433 307 433 z"},"j":{"x_min":0,"x_max":308,"ha":308,"o":"m 76 547 l 233 547 l 233 10 q 233 -100 186 -158 q 139 -216 48 -216 l -29 -216 l -29 -101 l -2 -101 q 42 -101 59 -79 q 76 -56 76 10 z m 76 760 l 233 760 l 233 617 l 76 617 z"},"i":{"x_min":0,"x_max":308,"ha":308,"o":"m 76 547 l 233 547 l 233 0 l 76 0 z m 76 760 l 233 760 l 233 617 l 76 617 z"},"y":{"x_min":0,"x_max":586,"ha":586,"o":"m 11 547 l 168 547 l 301 176 l 413 547 l 570 547 l 363 -52 q 332 -143 291 -179 q 249 -216 181 -216 l 90 -216 l 90 -101 l 139 -101 q 179 -101 198 -87 q 216 -73 226 -36 l 230 -21 z"},"@":{"x_min":0,"x_max":900,"ha":900,"o":"m 365 263 q 365 203 388 168 q 411 134 451 134 q 490 134 513 169 q 537 204 537 263 q 537 322 513 357 q 490 391 450 391 q 411 391 388 357 q 365 322 365 263 z m 545 116 q 532 82 503 62 q 474 43 435 43 q 359 43 312 104 q 265 165 265 262 q 265 360 312 421 q 359 482 435 482 q 474 482 503 462 q 532 443 545 408 l 545 472 l 637 472 l 637 134 q 692 143 723 192 q 754 241 754 318 q 754 367 741 409 q 729 452 703 488 q 661 547 598 580 q 536 612 463 612 q 412 612 365 597 q 318 582 279 553 q 214 505 178 429 q 142 354 142 265 q 142 192 165 129 q 188 65 233 16 q 277 -32 334 -57 q 391 -82 455 -82 q 511 -82 566 -59 q 622 -36 661 3 l 708 -76 q 652 -124 588 -149 q 523 -174 456 -174 q 375 -174 303 -142 q 230 -110 174 -49 q 118 12 89 93 q 60 173 60 265 q 60 354 89 435 q 119 515 174 576 q 230 637 303 670 q 377 703 456 703 q 555 703 635 661 q 715 620 770 541 q 802 493 819 437 q 836 381 836 320 q 836 188 765 114 q 693 41 562 41 l 545 41 z"},".":{"x_min":0,"x_max":342,"ha":342,"o":"m 92 189 l 250 189 l 250 0 l 92 0 z"},"p":{"x_min":0,"x_max":644,"ha":644,"o":"m 233 79 l 233 -208 l 76 -208 l 76 547 l 233 547 l 233 467 q 266 515 305 537 q 345 560 396 560 q 487 560 545 480 q 604 399 604 273 q 604 146 545 66 q 487 -14 396 -14 q 345 -14 305 9 q 266 31 233 79 z m 337 433 q 287 433 260 392 q 233 351 233 273 q 233 195 260 154 q 287 113 337 113 q 388 113 415 154 q 441 195 441 273 q 441 351 415 392 q 388 433 337 433 z"},"X":{"x_min":0,"x_max":694,"ha":694,"o":"m 448 372 l 676 0 l 500 0 l 346 249 l 194 0 l 17 0 l 245 372 l 26 729 l 203 729 l 346 494 l 490 729 l 667 729 z"},"*":{"x_min":0,"x_max":470,"ha":470,"o":"m 453 594 l 308 510 l 453 425 l 419 356 l 273 446 l 273 278 l 198 278 l 198 446 l 51 356 l 18 425 l 165 510 l 18 594 l 51 663 l 198 574 l 198 742 l 273 742 l 273 574 l 419 663 z"},"Y":{"x_min":0,"x_max":651,"ha":651,"o":"m -9 729 l 176 729 l 326 469 l 475 729 l 661 729 l 411 307 l 411 0 l 241 0 l 241 307 z"},"c":{"x_min":0,"x_max":533,"ha":533,"o":"m 473 530 l 473 387 q 441 412 409 423 q 376 435 342 435 q 276 435 239 392 q 203 350 203 273 q 203 196 239 154 q 276 111 342 111 q 379 111 412 123 q 445 135 473 159 l 473 16 q 437 1 398 -7 q 360 -14 322 -14 q 189 -14 114 62 q 39 138 39 273 q 39 408 114 484 q 189 560 322 560 q 361 560 398 552 q 436 545 473 530 z"},"!":{"x_min":0,"x_max":410,"ha":410,"o":"m 126 729 l 284 729 l 284 449 l 262 245 l 148 245 l 126 449 z m 126 174 l 284 174 l 284 0 l 126 0 z"},"/":{"x_min":0,"x_max":329,"ha":329,"o":"m 231 729 l 329 729 l 97 -93 l 0 -93 z"},"[":{"x_min":0,"x_max":411,"ha":411,"o":"m 77 760 l 350 760 l 350 650 l 227 650 l 227 -22 l 350 -22 l 350 -132 l 77 -132 z"},"6":{"x_min":0,"x_max":626,"ha":626,"o":"m 326 360 q 281 360 259 328 q 237 296 237 232 q 237 168 259 136 q 281 104 326 104 q 371 104 393 136 q 415 168 415 232 q 415 296 393 328 q 371 360 326 360 z m 535 710 l 535 575 q 493 597 456 608 q 419 618 384 618 q 309 618 266 572 q 224 525 217 433 q 246 457 280 469 q 314 481 354 481 q 455 481 516 416 q 578 350 578 244 q 578 127 509 56 q 440 -14 324 -14 q 196 -14 126 82 q 56 178 56 354 q 56 535 138 638 q 220 741 362 741 q 408 741 450 733 q 493 726 535 710 z"},"r":{"x_min":0,"x_max":444,"ha":444,"o":"m 441 398 q 420 409 400 414 q 380 419 359 419 q 298 419 266 376 q 233 333 233 252 l 233 0 l 76 0 l 76 547 l 233 547 l 233 457 q 263 511 302 535 q 342 560 397 560 q 405 560 414 559 q 423 559 441 556 z"},"2":{"x_min":0,"x_max":626,"ha":626,"o":"m 259 138 l 548 138 l 548 0 l 71 0 l 71 138 l 311 373 q 343 405 358 436 q 374 467 374 500 q 374 551 343 583 q 312 614 260 614 q 221 614 174 595 q 126 576 73 539 l 73 699 q 130 720 186 731 q 242 742 295 742 q 413 742 478 685 q 543 627 543 524 q 543 464 516 413 q 488 361 399 275 z"},"{":{"x_min":0,"x_max":641,"ha":641,"o":"m 528 -53 l 528 -163 l 433 -163 q 337 -163 293 -120 q 249 -77 249 17 l 249 111 q 249 184 225 213 q 202 241 139 241 l 112 241 l 112 350 l 139 350 q 202 350 225 378 q 249 407 249 480 l 249 580 q 249 674 293 717 q 337 760 433 760 l 528 760 l 528 650 l 498 650 q 436 650 417 629 q 398 607 398 538 l 398 457 q 398 380 379 346 q 359 311 311 299 q 359 286 379 251 q 398 216 398 140 l 398 59 q 398 -11 417 -32 q 436 -53 498 -53 z"},"9":{"x_min":0,"x_max":626,"ha":626,"o":"m 90 16 l 90 151 q 130 130 167 119 q 204 109 240 109 q 316 109 358 156 q 400 202 408 294 q 378 270 344 257 q 310 245 271 245 q 170 245 108 310 q 46 375 46 482 q 46 600 115 670 q 184 741 300 741 q 428 741 499 645 q 569 549 569 373 q 569 192 487 89 q 404 -14 261 -14 q 215 -14 173 -7 q 130 1 90 16 z m 299 367 q 343 367 366 399 q 388 431 388 495 q 388 559 366 591 q 343 623 299 623 q 254 623 232 591 q 209 559 209 495 q 209 431 232 399 q 254 367 299 367 z"}," ":{"x_min":0,"x_max":313,"ha":313,"o":""},"I":{"x_min":0,"x_max":334,"ha":334,"o":"m 83 729 l 252 729 l 252 0 l 83 0 z"},"H":{"x_min":0,"x_max":753,"ha":753,"o":"m 83 729 l 252 729 l 252 451 l 501 451 l 501 729 l 670 729 l 670 0 l 501 0 l 501 309 l 252 309 l 252 0 l 83 0 z"},"4":{"x_min":0,"x_max":626,"ha":626,"o":"m 332 574 l 146 269 l 332 269 z m 303 729 l 491 729 l 491 269 l 585 269 l 585 133 l 491 133 l 491 0 l 332 0 l 332 133 l 41 133 l 41 294 z"},"~":{"x_min":0,"x_max":754,"ha":754,"o":"m 659 415 l 659 296 q 612 257 573 240 q 534 223 491 223 q 444 223 381 251 q 375 254 372 256 q 369 257 362 260 q 294 290 253 290 q 214 290 176 271 q 139 252 95 212 l 95 331 q 143 370 182 387 q 221 404 263 404 q 310 404 373 375 q 379 373 382 371 q 385 370 392 367 q 460 337 501 337 q 539 337 576 355 q 613 374 659 415 z"},"D":{"x_min":0,"x_max":747,"ha":747,"o":"m 252 587 l 252 142 l 312 142 q 416 142 471 199 q 525 256 525 365 q 525 474 471 530 q 417 587 312 587 z m 83 729 l 261 729 q 411 729 484 705 q 557 682 609 625 q 655 576 678 511 q 700 447 700 365 q 700 283 678 218 q 655 153 609 104 q 556 47 482 24 q 409 0 261 0 l 83 0 z"},"^":{"x_min":0,"x_max":754,"ha":754,"o":"m 431 729 l 663 457 l 557 457 l 377 604 l 197 457 l 91 457 l 323 729 z"},"0":{"x_min":0,"x_max":626,"ha":626,"o":"m 414 365 q 414 502 391 558 q 368 614 313 614 q 259 614 236 558 q 212 502 212 365 q 212 227 236 170 q 259 114 313 114 q 367 114 391 170 q 414 227 414 365 z m 583 364 q 583 183 513 84 q 442 -14 313 -14 q 184 -14 113 84 q 43 183 43 364 q 43 545 113 644 q 184 742 313 742 q 442 742 513 644 q 583 545 583 364 z"},"F":{"x_min":0,"x_max":615,"ha":615,"o":"m 83 729 l 539 729 l 539 587 l 252 587 l 252 451 l 522 451 l 522 309 l 252 309 l 252 0 l 83 0 z"},"`":{"x_min":0,"x_max":450,"ha":450,"o":"m 166 800 l 290 616 l 204 616 l 42 800 z"},"k":{"x_min":0,"x_max":598,"ha":598,"o":"m 76 760 l 233 760 l 233 346 l 414 547 l 597 547 l 356 296 l 616 0 l 425 0 l 233 228 l 233 0 l 76 0 z"},"u":{"x_min":0,"x_max":641,"ha":641,"o":"m 70 213 l 70 547 l 229 547 l 229 492 q 229 448 228 381 q 228 313 228 291 q 228 225 231 196 q 234 167 241 154 q 251 137 267 127 q 282 118 302 118 q 352 118 380 160 q 408 202 408 277 l 408 547 l 565 547 l 565 0 l 408 0 l 408 79 q 372 31 332 9 q 292 -14 245 -14 q 160 -14 115 44 q 70 102 70 213 z"},"]":{"x_min":0,"x_max":411,"ha":411,"o":"m 334 -132 l 61 -132 l 61 -22 l 185 -22 l 185 650 l 61 650 l 61 760 l 334 760 z"},"U":{"x_min":0,"x_max":730,"ha":730,"o":"m 83 729 l 252 729 l 252 292 q 252 202 279 163 q 305 124 365 124 q 426 124 452 163 q 479 202 479 292 l 479 729 l 648 729 l 648 292 q 648 137 578 62 q 508 -14 365 -14 q 222 -14 152 62 q 83 137 83 292 z"},"o":{"x_min":0,"x_max":618,"ha":618,"o":"m 310 435 q 257 435 230 393 q 203 352 203 273 q 203 194 230 153 q 257 111 310 111 q 361 111 388 153 q 416 194 416 273 q 416 352 388 393 q 361 435 310 435 z m 310 560 q 437 560 508 484 q 580 408 580 273 q 580 138 508 62 q 437 -14 310 -14 q 183 -14 111 62 q 39 138 39 273 q 39 408 111 484 q 183 560 310 560 z"},"N":{"x_min":0,"x_max":753,"ha":753,"o":"m 83 729 l 271 729 l 510 229 l 510 729 l 670 729 l 670 0 l 481 0 l 243 500 l 243 0 l 83 0 z"},"+":{"x_min":0,"x_max":754,"ha":754,"o":"m 429 627 l 429 371 l 659 371 l 659 256 l 429 256 l 429 0 l 325 0 l 325 256 l 95 256 l 95 371 l 325 371 l 325 627 z"},"G":{"x_min":0,"x_max":738,"ha":738,"o":"m 672 54 q 609 20 541 3 q 473 -14 400 -14 q 236 -14 141 88 q 45 189 45 364 q 45 540 142 641 q 240 742 410 742 q 475 742 535 729 q 595 715 648 688 l 648 537 q 593 572 539 589 q 485 606 430 606 q 329 606 274 543 q 220 480 220 364 q 220 248 272 185 q 325 122 422 122 q 449 122 471 126 q 494 129 512 137 l 512 279 l 409 279 l 409 405 l 672 405 z"},"q":{"x_min":0,"x_max":644,"ha":644,"o":"m 307 433 q 257 433 230 392 q 204 351 204 273 q 204 195 230 154 q 257 113 307 113 q 357 113 384 154 q 411 195 411 273 q 411 351 384 392 q 357 433 307 433 z m 411 79 q 378 31 339 8 q 300 -14 248 -14 q 157 -14 99 66 q 41 146 41 273 q 41 399 99 479 q 157 559 248 559 q 300 559 339 537 q 378 514 411 466 l 411 547 l 569 547 l 569 -208 l 411 -208 z"},"d":{"x_min":0,"x_max":644,"ha":644,"o":"m 411 467 l 411 760 l 569 760 l 569 0 l 411 0 l 411 79 q 378 31 339 8 q 300 -14 248 -14 q 157 -14 99 66 q 41 146 41 273 q 41 399 99 480 q 157 560 248 560 q 299 560 339 537 q 378 515 411 467 z m 307 113 q 357 113 384 154 q 411 195 411 273 q 411 351 384 392 q 357 433 307 433 q 257 433 230 392 q 204 351 204 273 q 204 195 230 154 q 257 113 307 113 z"},"1":{"x_min":0,"x_max":626,"ha":626,"o":"m 105 130 l 255 130 l 255 601 l 102 566 l 102 694 l 254 729 l 415 729 l 415 130 l 564 130 l 564 0 l 105 0 z"},"5":{"x_min":0,"x_max":626,"ha":626,"o":"m 95 729 l 516 729 l 516 591 l 230 591 l 230 478 q 250 484 269 487 q 289 490 310 490 q 430 490 497 424 q 563 357 563 238 q 563 120 491 53 q 418 -14 289 -14 q 233 -14 178 -2 q 124 10 69 34 l 69 182 q 123 148 171 131 q 219 114 262 114 q 323 114 359 147 q 394 181 394 238 q 394 295 359 329 q 323 362 262 362 q 226 362 184 351 q 143 341 95 319 z"}}}
